<?xml version="1.0" standalone="no"?>
<!DOCTYPE svg PUBLIC "-//W3C//DTD SVG 20010904//EN"
 "http://www.w3.org/TR/2001/REC-SVG-20010904/DTD/svg10.dtd">
<svg version="1.0" xmlns="http://www.w3.org/2000/svg"
 width="580.000000pt" height="580.000000pt" viewBox="0 0 580.000000 580.000000"
 preserveAspectRatio="xMidYMid meet">
<metadata>
Created by potrace 1.14, written by Peter Selinger 2001-2017
</metadata>
<g transform="translate(0.000000,580.000000) scale(0.100000,-0.100000)"
fill="#000000" stroke="none">
<path d="M2713 4512 c-156 -165 -181 -192 -247 -266 -33 -37 -70 -78 -81 -90
-11 -13 -48 -54 -81 -92 -34 -38 -78 -87 -98 -109 l-36 -40 73 -70 c245 -238
513 -398 942 -561 11 -4 22 -8 25 -8 3 -1 11 -5 18 -9 6 -5 12 -6 12 -2 0 3
13 -1 30 -10 16 -8 33 -15 37 -15 5 -1 26 -6 48 -12 22 -6 43 -12 48 -14 4 -1
10 -3 15 -4 4 -1 12 -3 17 -4 6 -1 17 -5 25 -8 8 -4 56 -17 105 -29 71 -18
124 -23 250 -25 156 -2 491 -11 667 -18 47 -2 91 -7 97 -11 6 -3 11 -1 11 5 0
6 4 9 9 6 8 -6 108 -12 301 -21 47 -2 132 -7 190 -10 58 -3 143 -8 190 -10 47
-2 127 -6 179 -9 52 -4 132 -8 178 -11 90 -5 123 4 123 34 0 42 -26 48 -203
47 -162 -1 -168 0 -165 19 2 11 8 20 13 20 6 1 24 4 40 9 l30 8 -28 14 c-22
12 -25 18 -18 32 7 12 5 22 -7 35 -11 13 -13 20 -5 25 8 5 4 16 -12 34 l-23
26 -21 -28 c-13 -18 -16 -30 -9 -32 7 -3 5 -10 -6 -20 -18 -19 -21 -38 -6 -38
6 0 10 -5 10 -10 0 -6 -14 -3 -32 6 l-33 17 24 9 24 8 -22 24 c-18 19 -19 25
-8 28 11 2 7 12 -14 41 l-27 37 -33 -42 c-23 -28 -28 -40 -16 -35 26 10 20 -9
-10 -32 l-28 -20 33 -7 33 -7 -43 -28 c-45 -30 -44 -31 10 -31 31 0 33 -1 30
-30 l-3 -31 -72 -2 c-40 -1 -77 1 -83 5 -5 3 -9 21 -7 40 2 27 7 34 27 36 101
14 111 23 55 50 -20 9 -40 25 -46 35 -10 20 -6 23 24 20 24 -3 21 6 -9 34 -22
20 -23 25 -9 32 14 8 10 16 -24 53 l-39 43 -17 -34 c-10 -19 -23 -38 -29 -42
-8 -6 -6 -12 6 -20 15 -10 14 -14 -15 -39 -27 -24 -29 -28 -12 -27 46 3 49 0
24 -27 -13 -14 -37 -33 -52 -41 -16 -8 -27 -17 -24 -19 7 -7 49 -15 85 -15 31
-1 32 -2 32 -45 0 -39 -2 -44 -17 -35 -10 5 -20 9 -23 9 -3 -1 -48 9 -100 22
-52 12 -102 23 -110 25 -10 1 -15 14 -15 41 l0 39 59 7 c73 9 86 20 56 45 -32
26 -90 81 -90 85 0 2 14 5 32 6 18 2 34 4 36 6 2 3 -13 21 -32 42 -35 37 -41
58 -18 60 7 1 14 2 17 3 3 0 -13 27 -37 59 -23 31 -44 59 -45 61 -2 3 -11 -6
-21 -20 -9 -13 -31 -40 -49 -60 l-33 -37 25 -6 c39 -10 31 -26 -40 -80 -16
-13 -17 -17 -6 -25 7 -5 22 -6 32 -4 11 3 19 0 19 -6 0 -15 -58 -74 -89 -90
-13 -7 -19 -17 -15 -21 10 -9 72 -19 122 -20 31 0 32 -2 32 -40 0 -23 -5 -40
-11 -40 -6 0 -39 14 -73 30 -76 38 -164 115 -253 223 -37 45 -72 87 -78 93 -5
6 -38 42 -71 80 -34 38 -91 101 -128 139 -36 39 -66 73 -66 78 0 4 -12 7 -27
7 -18 0 -68 -27 -142 -76 l-113 -77 -235 234 c-130 129 -336 334 -459 457
-161 160 -230 222 -246 222 -16 0 -53 -32 -125 -108z m2617 -1322 c14 -7 26
-13 28 -12 1 1 2 0 2 -3 0 -3 0 -11 0 -18 0 -9 -13 -13 -46 -11 -55 3 -58 6
-50 38 7 28 24 30 66 6z"/>
<path d="M1750 3798 c-452 -468 -488 -501 -570 -540 -105 -50 -109 -52 -177
-62 l-42 -7 1 51 0 50 36 1 c121 3 139 15 81 54 -39 25 -89 69 -89 77 0 3 41
9 78 11 14 0 13 2 -46 51 l-44 36 26 10 26 10 -35 45 c-19 25 -39 54 -44 63
-5 9 -11 15 -14 12 -2 -3 -18 -26 -36 -52 -18 -27 -36 -48 -41 -48 -18 0 -10
-22 10 -27 29 -8 25 -21 -16 -60 -40 -38 -39 -46 6 -45 16 0 30 -1 30 -4 0 -3
-26 -29 -57 -59 -31 -30 -54 -57 -51 -61 7 -6 50 -12 99 -13 35 -1 37 -3 40
-38 6 -56 0 -81 -19 -87 -48 -15 -220 -28 -247 -19 -6 2 -10 16 -9 31 1 15 3
32 3 38 1 6 17 11 36 12 20 1 43 5 52 10 14 8 13 12 -7 28 -12 11 -31 28 -42
39 -19 20 -19 20 12 28 l31 8 -25 20 c-29 23 -34 39 -11 39 11 0 4 12 -20 37
-19 20 -35 40 -35 45 0 19 -18 6 -30 -21 -6 -16 -19 -32 -28 -36 -16 -6 -16
-7 0 -19 17 -12 16 -15 -7 -42 l-25 -29 27 -5 27 -5 -33 -27 c-17 -15 -40 -32
-49 -37 -9 -5 -14 -12 -10 -16 6 -6 55 -16 93 -19 16 -1 20 -8 20 -38 1 -21
-4 -39 -10 -41 -5 -2 -71 -3 -145 -2 l-135 1 1 24 c2 38 3 39 22 38 28 -2 72
12 72 23 0 5 -13 18 -30 27 -35 20 -38 32 -10 32 26 0 25 6 -6 35 -21 19 -23
25 -10 25 9 0 16 5 16 10 0 6 -4 10 -8 10 -4 0 -16 14 -26 31 l-18 31 -28 -34
c-27 -32 -31 -56 -7 -41 15 9 -11 -27 -32 -45 -14 -11 -14 -14 -1 -23 13 -8
10 -13 -13 -33 -24 -19 -26 -24 -13 -35 8 -7 27 -13 43 -14 27 -2 29 -5 24
-49 -1 -10 -30 -13 -112 -13 -125 1 -152 -8 -154 -47 -2 -22 3 -28 26 -33 36
-8 417 -8 544 0 128 9 180 13 180 15 0 1 16 3 35 5 19 1 69 6 110 9 41 4 100
9 130 11 30 2 93 7 140 10 88 7 131 9 315 20 225 12 695 25 1037 28 l227 2
-24 23 c-13 12 -29 22 -35 22 -5 0 -10 5 -10 10 0 6 -6 10 -12 10 -7 0 -25 10
-40 23 -14 12 -36 29 -48 37 -12 8 -28 20 -34 25 -6 6 -41 35 -76 65 -97 82
-219 211 -270 284 -8 12 -19 26 -26 31 -19 17 -139 206 -164 260 -48 102 -51
101 -300 -157z"/>
<path d="M2147 3103 c-1 -1 -115 -4 -252 -8 -328 -8 -474 -14 -760 -30 -147
-8 -304 -20 -400 -29 -22 -2 -71 -7 -110 -11 -178 -17 -215 -21 -255 -30 -14
-3 -47 -10 -75 -15 -55 -11 -105 -31 -105 -42 0 -9 49 -24 115 -33 11 -2 20
-4 20 -5 0 -1 18 -3 40 -5 22 -2 69 -6 105 -10 97 -10 135 -13 240 -19 52 -3
136 -8 185 -11 50 -3 131 -8 180 -10 123 -6 297 -14 372 -18 57 -3 97 -15 62
-18 -8 -1 -23 -3 -34 -5 -134 -23 -287 -29 -847 -29 -311 0 -565 -1 -563 -3 2
-2 11 -5 22 -7 10 -2 18 -4 18 -5 0 -1 20 -3 45 -5 25 -2 81 -6 125 -10 280
-23 516 -29 1265 -29 811 0 1014 6 1355 39 84 8 201 28 217 36 10 6 16 14 13
19 -7 11 -97 39 -146 45 -109 14 -141 17 -171 20 -79 6 -189 17 -205 20 -10 2
-26 4 -35 4 -10 1 -18 4 -18 9 0 4 66 8 148 8 81 1 206 5 277 9 72 4 155 9
185 10 30 1 66 3 79 4 34 1 16 16 -22 18 -18 1 -68 4 -112 7 -44 3 -190 8
-325 12 -135 3 -250 9 -257 13 -6 3 55 7 135 9 81 1 235 4 342 7 107 3 746 7
1419 10 673 2 1226 6 1228 9 2 2 -11 4 -29 5 -18 0 -64 3 -103 6 -38 3 -126 7
-195 10 -115 4 -195 7 -610 20 -80 2 -215 7 -300 10 -155 6 -210 8 -780 21
-269 6 -1479 12 -1483 7z"/>
<path d="M4085 2992 c-1 -1 -167 -4 -368 -5 -202 -2 -369 -5 -372 -8 -7 -8 -8
-8 243 -13 123 -2 226 -7 229 -10 3 -3 14 -1 24 5 11 5 19 6 19 2 0 -4 29 -8
65 -8 36 0 65 3 65 7 0 4 6 5 13 3 25 -9 107 -11 107 -3 0 5 5 6 10 3 16 -10
595 -4 1095 11 239 7 252 7 262 17 4 5 -306 7 -690 5 -384 -2 -700 -4 -702 -6z"/>
<path d="M504 2156 c-18 -8 -34 -24 -37 -37 -4 -13 -7 -108 -7 -211 l0 -188
48 0 49 0 -1 188 0 187 29 0 30 0 2 -75 c1 -41 2 -126 2 -187 l1 -113 44 0
c26 0 45 5 48 13 3 10 2 278 -1 358 -2 52 -30 71 -107 75 -44 2 -80 -2 -100
-10z"/>
<path d="M903 2159 c-39 -14 -43 -39 -43 -244 l0 -196 47 3 47 3 0 73 0 72 33
0 c19 0 33 -5 34 -12 0 -7 0 -41 0 -75 l-1 -63 49 0 49 0 1 188 c0 189 -7 234
-37 248 -25 10 -153 13 -179 3z m118 -69 c0 -5 1 -26 1 -45 0 -111 1 -107 -34
-103 l-33 3 -1 70 c0 39 2 73 4 78 5 11 62 9 63 -3z"/>
<path d="M3344 2158 c-12 -6 -27 -21 -33 -34 -15 -33 -15 -335 0 -367 16 -35
44 -44 131 -43 116 2 113 -4 113 226 0 229 3 223 -112 226 -43 1 -88 -3 -99
-8z m121 -218 l0 -155 -32 -3 c-29 -3 -33 0 -34 20 -1 29 -1 268 0 286 1 9 12
12 34 10 l32 -3 0 -155z"/>
<path d="M4804 2155 c-39 -16 -44 -29 -44 -125 0 -103 15 -123 96 -130 l59 -5
2 -52 1 -53 -34 0 c-31 0 -34 3 -34 30 0 29 -2 30 -45 30 l-45 0 0 -44 c0 -28
7 -52 19 -67 17 -21 28 -24 93 -25 119 -2 138 18 138 136 0 95 -14 122 -72
136 -5 1 -26 2 -48 3 l-40 1 0 50 c0 49 1 50 29 50 23 0 30 -5 33 -22 2 -19
10 -23 38 -24 19 0 40 3 46 8 15 11 1 75 -20 97 -20 20 -130 24 -172 6z"/>
<path d="M1249 2150 c-6 -60 -4 -65 32 -70 l36 -5 1 -160 c0 -88 1 -168 1
-177 1 -14 10 -18 46 -18 40 0 45 3 46 23 0 12 1 92 2 177 l2 155 35 5 c33 5
35 8 35 40 l0 35 -117 3 c-76 2 -118 -1 -119 -8z"/>
<path d="M1610 1961 c0 -251 -2 -246 125 -246 128 0 125 -5 125 247 l0 199
-47 -3 -47 -3 -2 -180 c-1 -99 -2 -184 -3 -188 0 -5 -13 -7 -28 -5 l-28 3 0
187 0 188 -47 0 -48 0 0 -199z"/>
<path d="M2010 1940 l0 -220 48 0 48 0 -1 90 -1 90 28 0 c22 0 28 -5 29 -22 0
-13 1 -52 2 -88 l2 -65 48 -3 47 -3 0 93 c0 58 -5 103 -13 118 -11 22 -11 28
0 38 13 12 15 24 15 77 0 57 -3 67 -27 90 -22 23 -31 25 -125 25 l-100 0 0
-220z m157 90 c0 -46 -4 -59 -16 -63 -35 -9 -46 6 -47 63 0 60 6 69 40 63 20
-4 23 -10 23 -63z"/>
<path d="M2409 2153 c0 -4 -1 -104 -2 -221 l-2 -213 100 3 100 3 0 35 0 35
-53 3 -53 3 3 52 3 52 48 -1 47 0 0 38 0 38 -50 0 -50 0 0 49 0 50 53 3 52 3
0 35 0 35 -97 3 c-54 1 -98 -1 -99 -5z"/>
<path d="M2940 2120 c0 -39 1 -40 35 -40 l35 0 0 -180 0 -180 48 0 47 0 0 171
c0 94 2 174 5 179 3 4 19 10 35 12 27 3 30 7 31 41 l1 37 -118 0 -119 0 0 -40z"/>
<path d="M3717 2153 c-9 -16 -4 -379 6 -400 13 -30 55 -42 132 -39 52 2 70 7
88 24 21 22 22 30 23 222 l1 200 -48 0 -49 0 0 -190 0 -190 -30 0 -30 0 0 190
0 190 -44 0 c-25 0 -47 -3 -49 -7z"/>
<path d="M4113 1940 l0 -220 49 0 48 0 0 91 0 90 28 -3 27 -3 0 -88 0 -87 48
0 c30 0 47 4 48 13 6 73 2 158 -8 185 -10 27 -10 37 1 55 19 32 20 110 2 145
-19 37 -38 42 -152 42 l-91 0 0 -220z m155 93 c2 -51 0 -61 -15 -65 -35 -9
-43 2 -43 61 0 65 4 72 34 67 18 -3 21 -11 24 -63z"/>
<path d="M4510 1941 l0 -221 48 0 47 0 0 218 0 217 -48 3 -47 3 0 -220z"/>
<path d="M5129 2150 c-6 -60 -4 -65 32 -70 l36 -5 0 -167 c1 -93 2 -173 2
-179 1 -6 20 -9 48 -7 l47 3 0 175 1 175 35 5 c33 5 35 8 35 40 l0 35 -117 3
c-76 2 -118 -1 -119 -8z"/>
<path d="M2068 1336 c-2 -6 -3 -26 -3 -43 1 -18 0 -33 -1 -33 -2 0 -14 4 -28
10 -82 31 -141 -96 -80 -169 20 -24 34 -31 63 -31 20 0 42 5 49 12 9 9 12 9
12 0 0 -7 11 -12 25 -12 l25 0 -3 138 -2 137 -27 1 c-15 1 -29 -4 -30 -10z
m-2 -143 c4 -13 2 -35 -5 -49 -19 -43 -71 -25 -71 25 0 55 63 76 76 24z"/>
<path d="M3205 1299 c-4 -16 -13 -29 -21 -29 -10 0 -14 -8 -12 -22 2 -13 9
-22 16 -20 8 1 12 -17 12 -61 0 -49 4 -68 18 -80 24 -22 68 -22 76 -1 8 20 -1
34 -20 34 -10 0 -14 13 -14 51 0 42 3 52 19 56 25 6 24 43 -1 43 -13 0 -18 8
-18 29 0 24 -4 29 -24 29 -19 0 -26 -7 -31 -29z"/>
<path d="M1695 1273 c-22 -6 -55 -32 -55 -44 0 -14 39 -20 59 -10 23 13 51 5
51 -15 0 -10 -12 -14 -38 -14 -45 0 -72 -24 -72 -63 0 -14 7 -33 16 -41 18
-19 75 -21 92 -4 9 9 12 9 12 0 0 -7 11 -12 25 -12 24 0 25 2 25 70 0 100 -13
121 -80 135 -8 1 -24 0 -35 -2z m43 -149 c-17 -17 -48 -13 -48 6 0 15 43 30
55 19 6 -6 3 -15 -7 -25z"/>
<path d="M2609 1262 c-38 -25 -48 -44 -49 -84 0 -73 34 -111 103 -110 36 1 77
23 77 43 0 13 -40 21 -53 10 -21 -17 -67 -2 -67 22 0 8 21 12 66 11 l66 -1 -7
36 c-12 70 -85 109 -136 73z m69 -44 c21 -21 13 -28 -28 -28 -38 0 -40 2 -30
20 12 22 40 26 58 8z"/>
<path d="M2955 1271 c-3 -3 -23 -5 -43 -6 l-37 0 -1 -97 -1 -98 28 0 c29 0 29
0 29 63 0 74 18 109 47 91 14 -8 18 -25 20 -70 1 -32 2 -65 2 -71 1 -8 14 -13
31 -13 l29 0 -2 78 c-3 77 -17 121 -40 123 -7 1 -22 3 -34 4 -12 1 -25 0 -28
-4z"/>
<path d="M3816 1265 c-14 -8 -26 -10 -26 -4 0 5 -11 9 -24 9 -29 0 -33 -17
-28 -127 l4 -73 29 0 c29 0 29 0 29 63 0 68 10 87 47 87 18 0 23 6 23 24 0 30
-20 38 -54 21z"/>
<path d="M4022 1260 c-60 -37 -61 -148 -2 -180 32 -17 86 -15 116 5 24 16 25
18 9 35 -16 17 -19 18 -40 4 -17 -11 -29 -12 -49 -5 -38 15 -32 31 14 32 22 1
50 2 63 2 30 1 37 14 26 50 -19 66 -81 91 -137 57z m76 -42 c21 -21 13 -28
-28 -28 -22 0 -40 4 -40 8 0 14 23 32 40 32 9 0 21 -5 28 -12z"/>
<path d="M2279 1170 c35 -99 37 -101 66 -98 25 3 32 10 46 48 10 25 26 69 38
98 l21 52 -33 0 c-32 0 -34 -2 -53 -67 l-20 -68 -18 68 c-18 65 -20 67 -51 67
l-32 0 36 -100z"/>
<path d="M3415 1196 c2 -84 19 -121 59 -128 14 -3 37 1 51 8 14 7 25 9 25 3 0
-5 11 -9 25 -9 20 0 25 5 26 28 1 33 1 142 0 160 -1 7 -14 12 -31 12 l-30 0 0
-70 c0 -58 -3 -71 -19 -79 -29 -16 -42 9 -42 83 l0 66 -33 0 -33 0 2 -74z"/>
</g>
</svg>
